<?xml version="1.0" encoding="UTF-8" standalone="no" ?>
<COLLADA version="1.4.1" xmlns="http://www.collada.org/2005/11/COLLADASchema">

  <asset>
    <created>2023-09-27T08:35:31</created>
    <modified>2023-09-27T08:35:31</modified>
    <unit meter="1" name="meters"/>
    <up_axis>Z_UP</up_axis>
  </asset>

  <library_materials>
    <material id="ID10" name="ID10">
      <instance_effect url="#ID10-fx"/>
    </material>
  </library_materials>

  <library_effects>
    <effect id="ID10-fx" name="ID10">
      <profile_COMMON>
        <technique sid="COMMON">
          <lambert>
            <diffuse>
              <color sid="diffuse">0.615686 0.811765 0.92549 1</color>
            </diffuse>
            <transparent opaque="A_ONE">
              <color sid="transparent">1 1 1 1</color>
            </transparent>
            <transparency>
              <float sid="transparency">1</float>
            </transparency>
          </lambert>
        </technique>
        <extra>
          <technique profile="OTHER">
            <double_sided>1</double_sided>
          </technique>
        </extra>
      </profile_COMMON>
    </effect>
  </library_effects>

  <library_geometries>
    <geometry id="ID4">
      <mesh>
        <source id="ID5">
          <float_array count="72" id="ID6">18.1413 0.405616 0 -2.85868 0.405616 0.025 18.1413 0.405616 0.025 -2.85868 0.405616 0 -2.85868 0.405616 0.025 -2.85868 -1.99438 0 -2.85868 -1.99438 0.025 -2.85868 0.405616 0 18.1413 -1.99438 0 18.1413 -1.99438 0.025 -2.85868 -1.99438 0.025 -2.85868 -1.99438 0 18.1413 -1.99438 0 18.1413 0.405616 0 18.1413 0.405616 0.025 18.1413 -1.99438 0.025 -2.85868 0.405616 0.025 -2.85868 -1.99438 0.025 18.1413 -1.99438 0.025 18.1413 0.405616 0.025 -2.85868 0.405616 0 18.1413 0.405616 0 18.1413 -1.99438 0 -2.85868 -1.99438 0</float_array>
          <technique_common>
            <accessor count="24" source="#ID6" stride="3">
              <param name="X" type="float"/>
              <param name="Y" type="float"/>
              <param name="Z" type="float"/>
            </accessor>
          </technique_common>
        </source>
        <source id="ID7">
          <float_array count="72" id="ID8">0 1 0 0 1 0 0 1 0 0 1 0 -1 -0 -0 -1 -0 -0 -1 -0 -0 -1 -0 -0 -0 -1 -0 -0 -1 -0 -0 -1 -0 -0 -1 -0 1 0 0 1 0 0 1 0 0 1 0 0 0 0 1 0 0 1 0 0 1 0 0 1 -0 -0 -1 -0 -0 -1 -0 -0 -1 -0 -0 -1</float_array>
          <technique_common>
            <accessor count="24" source="#ID8" stride="3">
              <param name="X" type="float"/>
              <param name="Y" type="float"/>
              <param name="Z" type="float"/>
            </accessor>
          </technique_common>
        </source>
        <vertices id="ID9">
          <input semantic="POSITION" source="#ID5"/>
          <input semantic="NORMAL" source="#ID7"/>
        </vertices>
        <triangles count="12" material="ID10">
          <input offset="0" semantic="VERTEX" source="#ID9"/>
          <p>0 1 2 1 0 3 4 5 6 4 7 5 8 9 10 10 11 8 12 13 14 12 14 15 16 17 18 16 18 19 20 21 22 22 23 20</p>
        </triangles>
      </mesh>
    </geometry>
    <geometry id="ID12">
      <mesh>
        <source id="ID13">
          <float_array count="72" id="ID14">0 20.9422 4.96292 0.025 -0.0578181 4.96292 0.025 20.9422 4.96292 0 -0.0578181 4.96292 0 -0.0578181 4.96292 0.025 -0.0578181 -0.0370776 0.025 -0.0578181 4.96292 0 -0.0578181 -0.0370776 0 20.9422 -0.0370776 0.025 20.9422 -0.0370776 0.025 -0.0578181 -0.0370776 0 -0.0578181 -0.0370776 0.025 20.9422 -0.0370776 0 20.9422 4.96292 0.025 20.9422 4.96292 0 20.9422 -0.0370776 0.025 -0.0578181 4.96292 0.025 -0.0578181 -0.0370776 0.025 20.9422 -0.0370776 0.025 20.9422 4.96292 0 -0.0578181 4.96292 0 20.9422 4.96292 0 20.9422 -0.0370776 0 -0.0578181 -0.0370776</float_array>
          <technique_common>
            <accessor count="24" source="#ID14" stride="3">
              <param name="X" type="float"/>
              <param name="Y" type="float"/>
              <param name="Z" type="float"/>
            </accessor>
          </technique_common>
        </source>
        <source id="ID15">
          <float_array count="72" id="ID16">0 0 1 0 0 1 0 0 1 0 0 1 -0 -1 -0 -0 -1 -0 -0 -1 -0 -0 -1 -0 -0 -0 -1 -0 -0 -1 -0 -0 -1 -0 -0 -1 0 1 0 0 1 0 0 1 0 0 1 0 1 0 0 1 0 0 1 0 0 1 0 0 -1 -0 -0 -1 -0 -0 -1 -0 -0 -1 -0 -0</float_array>
          <technique_common>
            <accessor count="24" source="#ID16" stride="3">
              <param name="X" type="float"/>
              <param name="Y" type="float"/>
              <param name="Z" type="float"/>
            </accessor>
          </technique_common>
        </source>
        <vertices id="ID17">
          <input semantic="POSITION" source="#ID13"/>
          <input semantic="NORMAL" source="#ID15"/>
        </vertices>
        <triangles count="12" material="ID10">
          <input offset="0" semantic="VERTEX" source="#ID17"/>
          <p>0 1 2 1 0 3 4 5 6 4 7 5 8 9 10 10 11 8 12 13 14 13 12 15 16 17 18 16 18 19 20 21 22 22 23 20</p>
        </triangles>
      </mesh>
    </geometry>
    <geometry id="ID19">
      <mesh>
        <source id="ID20">
          <float_array count="1080" id="ID21">-0.383745 -0.01 3.70259 -1.2 -0.01 0 -0.363842 -0.01 3.65722 -0.173646 -0.01 4.29082 -0.124774 -0.01 4.29898 -1.2 -0.01 5 -0.4 -0.01 3.8 -0.4 -0.01 4 0.2 -0.01 4 0.2 -0.01 3.8 1.2 -0.01 5 -0.383745 -0.01 4.09741 -0.395908 -0.01 4.04938 -0.336742 -0.01 4.18426 -0.363842 -0.01 4.14278 -0.264084 -0.01 4.25115 -0.303184 -0.01 4.22072 -0.220509 -0.01 4.27473 -0.0752262 -0.01 4.29898 0.0205086 -0.01 4.27473 -0.0263544 -0.01 4.29082 0.103184 -0.01 4.22072 0.0640844 -0.01 4.25115 0.163842 -0.01 4.14278 0.136742 -0.01 4.18426 0.195908 -0.01 4.04938 0.183745 -0.01 4.09741 0.195908 -0.01 3.75062 0.0263544 -0.01 1.19082 -0.0263544 -0.01 3.50918 -0.0752262 -0.01 3.50102 0.303184 -0.01 1.12072 0.336742 -0.01 1.08426 0.163842 -0.01 3.65722 0.183745 -0.01 3.70259 0.0640844 -0.01 3.54885 0.173646 -0.01 1.19082 0.220509 -0.01 1.17473 -0.0640844 -0.01 1.15115 -0.0205086 -0.01 1.17473 -0.173646 -0.01 3.50918 -0.124774 -0.01 3.50102 -0.103184 -0.01 1.12072 -0.220509 -0.01 3.52527 -0.264084 -0.01 3.54885 -0.136742 -0.01 1.08426 0.383745 -0.01 0.99741 0.363842 -0.01 1.04278 -0.163842 -0.01 1.04278 -0.303184 -0.01 3.57928 -0.183745 -0.01 0.99741 -0.336742 -0.01 3.61574 -0.2 -0.01 0.9 -0.195908 -0.01 0.949378 -0.2 -0.01 0.7 -0.395908 -0.01 3.75062 0.0752262 -0.01 1.19898 0.0205086 -0.01 3.52527 0.124774 -0.01 1.19898 0.103184 -0.01 3.57928 0.264084 -0.01 1.15115 0.136742 -0.01 3.61574 0.395908 -0.01 0.949378 1.2 -0.01 0 0.4 -0.01 0.9 0.4 -0.01 0.7 0.383745 -0.01 0.60259 0.395908 -0.01 0.650622 0.124774 -0.01 0.401025 0.0752262 -0.01 0.401025 0.336742 -0.01 0.515736 0.363842 -0.01 0.557216 0.264084 -0.01 0.44885 0.303184 -0.01 0.479283 0.173646 -0.01 0.40918 0.220509 -0.01 0.425268 0.0263544 -0.01 0.40918 -0.0640844 -0.01 0.44885 -0.0205086 -0.01 0.425268 -0.136742 -0.01 0.515736 -0.103184 -0.01 0.479283 -0.183745 -0.01 0.60259 -0.163842 -0.01 0.557216 -0.195908 -0.01 0.650622 -0.383745 0 3.70259 -1.2 0 0 -1.2 0 5 0.103184 0 3.57928 0.264084 0 1.15115 0.220509 0 1.17473 1.2 0 5 0.2 0 3.8 0.2 0 4 0.336742 0 1.08426 0.183745 0 3.70259 0.363842 0 1.04278 0.195908 0 3.75062 0.303184 0 1.12072 0.136742 0 3.61574 0.163842 0 3.65722 0.0205086 0 3.52527 0.0752262 0 1.19898 -0.0263544 0 3.50918 0.0640844 0 3.54885 0.173646 0 1.19082 -0.0640844 0 1.15115 -0.103184 0 1.12072 -0.220509 0 3.52527 -0.0205086 0 1.17473 -0.124774 0 3.50102 -0.0752262 0 3.50102 -0.264084 0 3.54885 -0.136742 0 1.08426 -0.303184 0 3.57928 -0.183745 0 0.99741 -0.336742 0 3.61574 -0.163842 0 1.04278 0.0752262 0 0.401025 0.124774 0 0.401025 1.2 0 0 -0.363842 0 3.65722 -0.2 0 0.9 -0.2 0 0.7 -0.4 0 3.8 -0.395908 0 3.75062 -0.4 0 4 -0.383745 0 4.09741 -0.395908 0 4.04938 -0.124774 0 4.29898 -0.173646 0 4.29082 -0.336742 0 4.18426 -0.363842 0 4.14278 -0.264084 0 4.25115 -0.303184 0 4.22072 -0.220509 0 4.27473 -0.0752262 0 4.29898 0.0205086 0 4.27473 -0.0263544 0 4.29082 0.103184 0 4.22072 0.0640844 0 4.25115 0.163842 0 4.14278 0.136742 0 4.18426 0.195908 0 4.04938 0.183745 0 4.09741 0.395908 0 0.650622 0.4 0 0.7 0.4 0 0.9 0.363842 0 0.557216 0.383745 0 0.60259 0.303184 0 0.479283 0.336742 0 0.515736 0.220509 0 0.425268 0.264084 0 0.44885 0.173646 0 0.40918 0.0263544 0 0.40918 -0.0640844 0 0.44885 -0.0205086 0 0.425268 -0.195908 0 0.949378 -0.136742 0 0.515736 -0.103184 0 0.479283 -0.183745 0 0.60259 -0.163842 0 0.557216 -0.195908 0 0.650622 -0.173646 0 3.50918 0.0263544 0 1.19082 0.124774 0 1.19898 0.383745 0 0.99741 0.395908 0 0.949378 -1.2 0 0 -1.2 -0.01 0 -1.2 -0.01 5 -1.2 0 5 -1.2 0 0 1.2 0 0 1.2 -0.01 0 -1.2 -0.01 0 1.2 0 0 1.2 0 5 1.2 -0.01 5 1.2 -0.01 0 -1.2 0 5 -1.2 -0.01 5 1.2 -0.01 5 1.2 0 5 0.0752262 0 1.19898 0.124774 0 1.19898 0.124774 -0.01 1.19898 0.173646 0 1.19082 0.173646 -0.01 1.19082 0.220509 -0.01 1.17473 0.220509 0 1.17473 0.264084 0 1.15115 0.264084 -0.01 1.15115 0.303184 0 1.12072 0.303184 -0.01 1.12072 0.336742 -0.01 1.08426 0.336742 0 1.08426 0.363842 0 1.04278 0.363842 -0.01 1.04278 0.383745 0 0.99741 0.383745 -0.01 0.99741 0.395908 -0.01 0.949378 0.395908 0 0.949378 0.4 -0.01 0.9 0.4 0 0.9 0.0752262 -0.01 1.19898 0.0263544 0 1.19082 0.0263544 -0.01 1.19082 -0.0205086 -0.01 1.17473 -0.0205086 0 1.17473 -0.0640844 -0.01 1.15115 -0.0640844 0 1.15115 -0.103184 0 1.12072 -0.103184 -0.01 1.12072 -0.136742 -0.01 1.08426 -0.136742 0 1.08426 -0.163842 -0.01 1.04278 -0.163842 0 1.04278 -0.183745 0 0.99741 -0.183745 -0.01 0.99741 -0.195908 -0.01 0.949378 -0.195908 0 0.949378 -0.2 0 0.9 -0.2 -0.01 0.9 0.4 -0.01 0.7 0.4 0 0.9 0.4 0 0.7 0.4 -0.01 0.9 -0.183745 0 0.60259 -0.195908 -0.01 0.650622 -0.183745 -0.01 0.60259 -0.2 -0.01 0.7 -0.195908 0 0.650622 -0.2 0 0.7 -0.136742 -0.01 0.515736 -0.103184 -0.01 0.479283 -0.103184 0 0.479283 -0.136742 0 0.515736 -0.163842 0 0.557216 -0.163842 -0.01 0.557216 0.0263544 0 0.40918 -0.0205086 -0.01 0.425268 0.0263544 -0.01 0.40918 -0.0205086 0 0.425268 -0.0640844 0 0.44885 -0.0640844 -0.01 0.44885 0.173646 -0.01 0.40918 0.173646 0 0.40918 0.124774 -0.01 0.401025 0.0752262 -0.01 0.401025 0.124774 0 0.401025 0.0752262 0 0.401025 0.264084 -0.01 0.44885 0.303184 -0.01 0.479283 0.303184 0 0.479283 0.220509 0 0.425268 0.220509 -0.01 0.425268 0.264084 0 0.44885 0.336742 -0.01 0.515736 0.363842 0 0.557216 0.336742 0 0.515736 0.383745 0 0.60259 0.363842 -0.01 0.557216 0.383745 -0.01 0.60259 0.395908 0 0.650622 0.395908 -0.01 0.650622 0.4 0 0.7 0.4 -0.01 0.7 -0.2 -0.01 0.7 -0.2 0 0.7 -0.2 0 0.9 -0.2 -0.01 0.9 -0.383745 -0.01 4.09741 -0.395908 0 4.04938 -0.383745 0 4.09741 -0.4 0 4 -0.395908 -0.01 4.04938 -0.4 -0.01 4 -0.336742 0 4.18426 -0.303184 0 4.22072 -0.303184 -0.01 4.22072 -0.336742 -0.01 4.18426 -0.363842 -0.01 4.14278 -0.363842 0 4.14278 -0.173646 -0.01 4.29082 -0.220509 0 4.27473 -0.173646 0 4.29082 -0.220509 -0.01 4.27473 -0.264084 -0.01 4.25115 -0.264084 0 4.25115 -0.0263544 0 4.29082 -0.0263544 -0.01 4.29082 -0.0752262 0 4.29898 -0.124774 0 4.29898 -0.0752262 -0.01 4.29898 -0.124774 -0.01 4.29898 0.0640844 0 4.25115 0.103184 0 4.22072 0.103184 -0.01 4.22072 0.0205086 -0.01 4.27473 0.0205086 0 4.27473 0.0640844 -0.01 4.25115 0.136742 0 4.18426 0.163842 -0.01 4.14278 0.136742 -0.01 4.18426 0.183745 -0.01 4.09741 0.163842 0 4.14278 0.183745 0 4.09741 0.195908 -0.01 4.04938 0.195908 0 4.04938 0.2 -0.01 4 0.2 0 4 -0.4 0 3.8 -0.4 -0.01 4 -0.4 -0.01 3.8 -0.4 0 4 -0.124774 -0.01 3.50102 -0.0752262 -0.01 3.50102 -0.0752262 0 3.50102 -0.0263544 -0.01 3.50918 -0.0263544 0 3.50918 0.0205086 0 3.52527 0.0205086 -0.01 3.52527 0.0640844 -0.01 3.54885 0.0640844 0 3.54885 0.103184 -0.01 3.57928 0.103184 0 3.57928 0.136742 0 3.61574 0.136742 -0.01 3.61574 0.163842 -0.01 3.65722 0.163842 0 3.65722 0.183745 -0.01 3.70259 0.183745 0 3.70259 0.195908 0 3.75062 0.195908 -0.01 3.75062 0.2 0 3.8 0.2 -0.01 3.8 -0.124774 0 3.50102 -0.173646 -0.01 3.50918 -0.173646 0 3.50918 -0.220509 0 3.52527 -0.220509 -0.01 3.52527 -0.264084 0 3.54885 -0.264084 -0.01 3.54885 -0.303184 -0.01 3.57928 -0.303184 0 3.57928 -0.336742 0 3.61574 -0.336742 -0.01 3.61574 -0.363842 0 3.65722 -0.363842 -0.01 3.65722 -0.383745 -0.01 3.70259 -0.383745 0 3.70259 -0.395908 0 3.75062 -0.395908 -0.01 3.75062 -0.4 -0.01 3.8 -0.4 0 3.8 0.2 0 3.8 0.2 -0.01 3.8 0.2 -0.01 4 0.2 0 4</float_array>
          <technique_common>
            <accessor count="360" source="#ID21" stride="3">
              <param name="X" type="float"/>
              <param name="Y" type="float"/>
              <param name="Z" type="float"/>
            </accessor>
          </technique_common>
        </source>
        <source id="ID22">
          <float_array count="1080" id="ID23">0 -1 0 0 -1 0 0 -1 0 0 -1 0 0 -1 0 0 -1 0 0 -1 0 0 -1 0 0 -1 0 0 -1 0 0 -1 0 0 -1 0 0 -1 0 0 -1 0 0 -1 0 0 -1 0 0 -1 0 0 -1 0 0 -1 0 0 -1 0 0 -1 0 0 -1 0 0 -1 0 0 -1 0 0 -1 0 0 -1 0 0 -1 0 0 -1 0 0 -1 0 0 -1 0 0 -1 0 0 -1 0 0 -1 0 0 -1 0 0 -1 0 0 -1 0 0 -1 0 0 -1 0 0 -1 0 0 -1 0 0 -1 0 0 -1 0 0 -1 0 0 -1 0 0 -1 0 0 -1 0 0 -1 0 0 -1 0 0 -1 0 0 -1 0 0 -1 0 0 -1 0 0 -1 0 0 -1 0 0 -1 0 0 -1 0 0 -1 0 0 -1 0 0 -1 0 0 -1 0 0 -1 0 0 -1 0 0 -1 0 0 -1 0 0 -1 0 0 -1 0 0 -1 0 0 -1 0 0 -1 0 0 -1 0 0 -1 0 0 -1 0 0 -1 0 0 -1 0 0 -1 0 0 -1 0 0 -1 0 0 -1 0 0 -1 0 0 -1 0 0 -1 0 0 -1 0 0 -1 0 0 -1 0 0 1 0 0 1 0 0 1 0 0 1 0 0 1 0 0 1 0 0 1 0 0 1 0 0 1 0 0 1 0 0 1 0 0 1 0 0 1 0 0 1 0 0 1 0 0 1 0 0 1 0 0 1 0 0 1 0 0 1 0 0 1 0 0 1 0 0 1 0 0 1 0 0 1 0 0 1 0 0 1 0 0 1 0 0 1 0 0 1 0 0 1 0 0 1 0 0 1 0 0 1 0 0 1 0 0 1 0 0 1 0 0 1 0 0 1 0 0 1 0 0 1 0 0 1 0 0 1 0 0 1 0 0 1 0 0 1 0 0 1 0 0 1 0 0 1 0 0 1 0 0 1 0 0 1 0 0 1 0 0 1 0 0 1 0 0 1 0 0 1 0 0 1 0 0 1 0 0 1 0 0 1 0 0 1 0 0 1 0 0 1 0 0 1 0 0 1 0 0 1 0 0 1 0 0 1 0 0 1 0 0 1 0 0 1 0 0 1 0 0 1 0 0 1 0 0 1 0 0 1 0 0 1 0 0 1 0 0 1 0 0 1 0 0 1 0 0 1 0 0 1 0 -1 0 -1.77636e-16 -1 0 -1.77636e-16 -1 0 -1.77636e-16 -1 0 -1.77636e-16 -0 -0 -1 -0 -0 -1 -0 -0 -1 -0 -0 -1 1 0 1.77636e-16 1 0 1.77636e-16 1 0 1.77636e-16 1 0 1.77636e-16 0 0 1 0 0 1 0 0 1 0 0 1 0.0825793 0 -0.996584 -0.0825795 -0 -0.996584 -0.0825795 -0 -0.996584 -0.245486 -0 -0.9694 -0.245486 -0 -0.9694 -0.401695 -0 -0.915773 -0.401695 -0 -0.915773 -0.546948 -0 -0.837166 -0.546948 -0 -0.837166 -0.677281 -0 -0.735724 -0.677281 -0 -0.735724 -0.789141 -0 -0.614213 -0.789141 -0 -0.614213 -0.879474 -0 -0.475947 -0.879474 -0 -0.475947 -0.945817 -0 -0.3247 -0.945817 -0 -0.3247 -0.986361 -0 -0.164595 -0.986361 -0 -0.164595 -1 0 1.19249e-08 -1 0 1.19249e-08 0.0825793 0 -0.996584 0.245486 0 -0.9694 0.245486 0 -0.9694 0.401695 0 -0.915773 0.401695 0 -0.915773 0.546948 0 -0.837166 0.546948 0 -0.837166 0.677282 0 -0.735724 0.677282 0 -0.735724 0.789141 0 -0.614213 0.789141 0 -0.614213 0.879474 0 -0.475947 0.879474 0 -0.475947 0.945817 0 -0.3247 0.945817 0 -0.3247 0.986361 0 -0.164595 0.986361 0 -0.164595 1 0 -4.37114e-08 1 0 -4.37114e-08 -1 -0 -0 -1 -0 -0 -1 -0 -0 -1 -0 -0 0.945817 0 0.3247 0.986361 0 0.164595 0.945817 0 0.3247 1 0 -1.19249e-08 0.986361 0 0.164595 1 0 -1.19249e-08 0.789141 0 0.614213 0.677281 0 0.735724 0.677281 0 0.735724 0.789141 0 0.614213 0.879474 0 0.475947 0.879474 0 0.475947 0.245486 0 0.9694 0.401695 0 0.915773 0.245486 0 0.9694 0.401695 0 0.915773 0.546948 0 0.837166 0.546948 0 0.837166 -0.245486 0 0.9694 -0.245486 0 0.9694 -0.0825793 0 0.996584 0.0825795 0 0.996584 -0.0825793 0 0.996584 0.0825795 0 0.996584 -0.546948 0 0.837166 -0.677282 0 0.735724 -0.677282 0 0.735724 -0.401695 0 0.915773 -0.401695 0 0.915773 -0.546948 0 0.837166 -0.789141 0 0.614213 -0.879474 0 0.475947 -0.789141 0 0.614213 -0.945817 0 0.3247 -0.879474 0 0.475947 -0.945817 0 0.3247 -0.986361 0 0.164595 -0.986361 0 0.164595 -1 0 4.37114e-08 -1 0 4.37114e-08 1 0 1.38778e-16 1 0 1.38778e-16 1 0 1.38778e-16 1 0 1.38778e-16 0.945817 0 -0.3247 0.986361 0 -0.164595 0.945817 0 -0.3247 1 0 1.19249e-08 0.986361 0 -0.164595 1 0 1.19249e-08 0.789141 0 -0.614213 0.677281 0 -0.735724 0.677281 0 -0.735724 0.789141 0 -0.614213 0.879474 0 -0.475947 0.879474 0 -0.475947 0.245486 0 -0.9694 0.401695 0 -0.915773 0.245486 0 -0.9694 0.401695 0 -0.915773 0.546948 0 -0.837166 0.546948 0 -0.837166 -0.245486 -0 -0.9694 -0.245486 -0 -0.9694 -0.0825793 -0 -0.996584 0.0825795 0 -0.996584 -0.0825793 -0 -0.996584 0.0825795 0 -0.996584 -0.546948 -0 -0.837166 -0.677282 -0 -0.735724 -0.677282 -0 -0.735724 -0.401695 -0 -0.915773 -0.401695 -0 -0.915773 -0.546948 -0 -0.837166 -0.789141 -0 -0.614213 -0.879474 -0 -0.475947 -0.789141 -0 -0.614213 -0.945817 -0 -0.3247 -0.879474 -0 -0.475947 -0.945817 -0 -0.3247 -0.986361 -0 -0.164595 -0.986361 -0 -0.164595 -1 -0 -4.37114e-08 -1 -0 -4.37114e-08 1 0 2.77556e-16 1 0 2.77556e-16 1 0 2.77556e-16 1 0 2.77556e-16 0.0825793 0 0.996584 -0.0825795 0 0.996584 -0.0825795 0 0.996584 -0.245486 0 0.9694 -0.245486 0 0.9694 -0.401695 0 0.915773 -0.401695 0 0.915773 -0.546948 0 0.837166 -0.546948 0 0.837166 -0.677281 0 0.735724 -0.677281 0 0.735724 -0.789141 0 0.614213 -0.789141 0 0.614213 -0.879474 0 0.475947 -0.879474 0 0.475947 -0.945817 0 0.3247 -0.945817 0 0.3247 -0.986361 0 0.164595 -0.986361 0 0.164595 -1 -0 -1.19249e-08 -1 -0 -1.19249e-08 0.0825793 0 0.996584 0.245486 0 0.9694 0.245486 0 0.9694 0.401695 0 0.915773 0.401695 0 0.915773 0.546948 0 0.837166 0.546948 0 0.837166 0.677282 0 0.735724 0.677282 0 0.735724 0.789141 0 0.614213 0.789141 0 0.614213 0.879474 0 0.475947 0.879474 0 0.475947 0.945817 0 0.3247 0.945817 0 0.3247 0.986361 0 0.164595 0.986361 0 0.164595 1 0 4.37114e-08 1 0 4.37114e-08 -1 0 -2.77556e-16 -1 0 -2.77556e-16 -1 0 -2.77556e-16 -1 0 -2.77556e-16</float_array>
          <technique_common>
            <accessor count="360" source="#ID23" stride="3">
              <param name="X" type="float"/>
              <param name="Y" type="float"/>
              <param name="Z" type="float"/>
            </accessor>
          </technique_common>
        </source>
        <vertices id="ID24">
          <input semantic="POSITION" source="#ID20"/>
          <input semantic="NORMAL" source="#ID22"/>
        </vertices>
        <triangles count="340" material="ID10">
          <input offset="0" semantic="VERTEX" source="#ID24"/>
          <p>0 1 2 3 4 5 5 6 7 8 9 10 11 5 12 5 7 12 13 5 14 5 11 14 15 5 16 5 13 16 5 17 3 5 15 17 10 5 18 4 18 5 19 10 20 10 18 20 21 10 22 10 19 22 23 10 24 10 21 24 25 10 26 10 23 26 10 25 8 10 9 27 28 29 30 31 32 33 32 34 33 35 36 37 38 39 40 41 40 39 42 43 44 38 40 43 39 30 41 44 45 42 46 10 47 48 45 49 50 2 1 51 2 50 1 52 53 50 1 53 1 0 5 52 1 54 6 5 55 5 0 55 44 49 45 49 51 48 51 50 48 42 38 43 56 29 28 28 30 39 57 56 58 56 57 29 35 57 36 58 36 57 35 37 59 60 61 59 59 37 60 61 31 33 31 61 60 34 32 47 27 47 10 47 27 34 62 63 46 10 46 63 64 63 62 65 63 64 66 63 67 63 65 67 68 69 63 70 63 71 63 66 71 72 63 73 63 70 73 74 63 75 63 72 75 63 74 68 76 1 69 63 69 1 77 1 78 1 76 78 79 1 80 1 77 80 81 1 82 1 79 82 54 1 83 1 81 83 84 85 86 87 88 89 90 91 92 93 94 95 91 90 96 97 98 99 94 96 95 100 101 102 100 103 104 105 106 107 108 109 110 111 112 113 111 106 112 114 115 116 116 113 112 117 118 119 114 120 115 85 84 120 121 122 85 123 124 86 86 124 84 125 123 86 126 127 86 86 127 125 86 128 129 130 131 86 86 131 126 132 133 86 86 133 130 86 129 134 86 134 132 90 135 86 128 86 135 136 137 90 90 137 135 138 139 90 90 139 136 140 141 90 90 141 138 142 143 90 90 143 140 92 142 90 111 107 106 96 90 95 144 145 119 119 145 146 147 148 119 119 148 144 149 150 119 119 150 147 151 152 119 119 152 149 119 118 153 119 153 151 114 85 120 154 117 85 119 85 117 155 156 85 85 156 154 85 114 157 158 159 85 85 159 155 160 161 85 85 161 158 85 157 121 85 162 160 85 122 162 113 116 115 105 107 163 109 108 163 105 163 108 110 164 108 164 102 101 102 164 110 165 101 100 89 104 103 104 165 100 88 87 98 89 103 87 97 99 93 88 98 97 90 166 95 99 94 93 167 166 119 90 119 166 146 167 119 168 169 170 168 170 171 172 173 174 174 175 172 176 177 178 178 179 176 180 181 182 180 182 183 184 185 186 187 188 185 186 185 188 189 187 190 187 189 188 190 191 192 192 189 190 193 194 191 192 191 194 195 193 196 193 195 194 196 197 198 198 195 196 199 200 197 198 197 200 201 199 202 199 201 200 203 201 202 203 202 204 186 205 184 206 205 207 205 206 184 207 208 209 209 206 207 210 211 208 209 208 211 212 210 213 210 212 211 213 214 215 215 212 213 216 217 214 215 214 217 218 216 219 216 218 217 219 220 221 221 218 219 221 220 222 220 223 222 224 225 226 224 227 225 228 229 230 231 232 233 234 235 236 237 238 239 240 241 242 243 244 245 246 247 248 249 250 251 252 253 254 255 256 257 258 259 260 260 253 258 261 259 262 258 262 259 261 263 264 263 261 262 265 266 264 264 263 265 257 252 254 265 267 266 253 260 254 256 255 246 252 257 256 247 250 248 255 247 246 251 242 249 250 249 248 243 241 240 240 242 251 235 245 244 245 241 243 234 236 237 235 244 236 239 238 230 234 237 239 228 232 229 238 228 230 231 229 232 268 269 270 268 270 271 272 273 274 275 276 277 278 279 280 281 282 283 284 285 286 287 288 289 290 291 292 293 294 295 296 297 298 299 300 301 302 303 304 304 297 302 305 303 306 302 306 303 305 307 308 307 305 306 309 310 308 308 307 309 301 296 298 309 311 310 297 304 298 300 299 290 296 301 300 291 294 292 299 291 290 295 286 293 294 293 292 287 285 284 284 286 295 279 289 288 289 285 287 278 280 281 279 288 280 283 282 274 278 281 283 272 276 273 282 272 274 275 273 276 312 313 314 312 315 313 316 317 318 319 320 317 318 317 320 321 319 322 319 321 320 322 323 324 324 321 322 325 326 323 324 323 326 327 325 328 325 327 326 328 329 330 330 327 328 331 332 329 330 329 332 333 331 334 331 333 332 335 333 334 335 334 336 318 337 316 338 337 339 337 338 316 339 340 341 341 338 339 342 343 340 341 340 343 344 342 345 342 344 343 345 346 347 347 344 345 348 349 346 347 346 349 350 348 351 348 350 349 351 352 353 353 350 351 353 352 354 352 355 354 356 357 358 356 358 359</p>
        </triangles>
      </mesh>
    </geometry>
    <geometry id="ID26">
      <mesh>
        <source id="ID27">
          <float_array count="72" id="ID28">-1.2 0 0 -1.2 -0.01 0 -1.2 -0.01 5 -1.2 0 5 -1.2 0 0 1.2 0 0 1.2 -0.01 0 -1.2 -0.01 0 1.2 0 0 1.2 0 5 1.2 -0.01 5 1.2 -0.01 0 -1.2 0 5 -1.2 -0.01 5 1.2 -0.01 5 1.2 0 5 -1.2 -0.01 5 1.2 -0.01 0 1.2 -0.01 5 -1.2 -0.01 0 -1.2 0 5 1.2 0 5 1.2 0 0 -1.2 0 0</float_array>
          <technique_common>
            <accessor count="24" source="#ID28" stride="3">
              <param name="X" type="float"/>
              <param name="Y" type="float"/>
              <param name="Z" type="float"/>
            </accessor>
          </technique_common>
        </source>
        <source id="ID29">
          <float_array count="72" id="ID30">-1 0 -1.77636e-16 -1 0 -1.77636e-16 -1 0 -1.77636e-16 -1 0 -1.77636e-16 -0 -0 -1 -0 -0 -1 -0 -0 -1 -0 -0 -1 1 0 1.77636e-16 1 0 1.77636e-16 1 0 1.77636e-16 1 0 1.77636e-16 0 0 1 0 0 1 0 0 1 0 0 1 0 -1 0 0 -1 0 0 -1 0 0 -1 0 0 1 0 0 1 0 0 1 0 0 1 0</float_array>
          <technique_common>
            <accessor count="24" source="#ID30" stride="3">
              <param name="X" type="float"/>
              <param name="Y" type="float"/>
              <param name="Z" type="float"/>
            </accessor>
          </technique_common>
        </source>
        <vertices id="ID31">
          <input semantic="POSITION" source="#ID27"/>
          <input semantic="NORMAL" source="#ID29"/>
        </vertices>
        <triangles count="12" material="ID10">
          <input offset="0" semantic="VERTEX" source="#ID31"/>
          <p>0 1 2 0 2 3 4 5 6 6 7 4 8 9 10 10 11 8 12 13 14 12 14 15 16 17 18 17 16 19 20 21 22 22 23 20</p>
        </triangles>
      </mesh>
    </geometry>
  </library_geometries>

  <library_visual_scenes>
    <visual_scene id="ID1">
      <node id="ID2" name="Assembly 2">
        <node>
          <matrix>0 -1 0 2.14691 1 0 0 -10.9071 0 0 1 4.57101 0 0 0 1</matrix>
          <instance_node url="#ID3"/>
        </node>
        <node>
          <matrix>1 0 0 1.7163 0 1 0 -13.7079 0 0 1 -0.404417 0 0 0 1</matrix>
          <instance_node url="#ID11"/>
        </node>
        <node>
          <matrix>1 0 0 2.9413 0 1 0 -9.56077 0 0 1 -0.448608 0 0 0 1</matrix>
          <instance_node url="#ID18"/>
        </node>
        <node>
          <matrix>1 0 0 2.9413 0 1 0 -1.16077 0 0 1 -0.448608 0 0 0 1</matrix>
          <instance_node url="#ID18"/>
        </node>
        <node>
          <matrix>1 0 0 4.1163 0 1 0 -13.7079 0 0 1 -0.404417 0 0 0 1</matrix>
          <instance_node url="#ID11"/>
        </node>
        <node>
          <matrix>1 0 0 2.9413 0 1 0 7.23923 0 0 1 -0.428994 0 0 0 1</matrix>
          <instance_node url="#ID25"/>
        </node>
        <node>
          <matrix>0 -1 0 2.14691 1 0 0 -10.9071 0 0 1 -0.453994 0 0 0 1</matrix>
          <instance_node url="#ID3"/>
        </node>
        <node>
          <matrix>1 0 0 2.9413 0 1 0 -5.36077 0 0 1 -0.448608 0 0 0 1</matrix>
          <instance_node url="#ID18"/>
        </node>
        <node>
          <matrix>1 0 0 2.9413 0 1 0 -13.7608 0 0 1 -0.428994 0 0 0 1</matrix>
          <instance_node url="#ID25"/>
        </node>
        <node>
          <matrix>1 0 0 2.9413 0 1 0 3.03923 0 0 1 -0.448608 0 0 0 1</matrix>
          <instance_node url="#ID18"/>
        </node>
      </node>
    </visual_scene>
  </library_visual_scenes>

  <scene>
    <instance_visual_scene url="#ID1"/>
  </scene>

  <library_nodes>
    <node id="ID3" name="Part 1">
      <instance_geometry url="#ID4">
        <bind_material>
          <technique_common>
            <instance_material symbol="ID10" target="#ID10"/>
          </technique_common>
        </bind_material>
      </instance_geometry>
    </node>
    <node id="ID11" name="Part 1">
      <instance_geometry url="#ID12">
        <bind_material>
          <technique_common>
            <instance_material symbol="ID10" target="#ID10"/>
          </technique_common>
        </bind_material>
      </instance_geometry>
    </node>
    <node id="ID18" name="Part 1">
      <instance_geometry url="#ID19">
        <bind_material>
          <technique_common>
            <instance_material symbol="ID10" target="#ID10"/>
          </technique_common>
        </bind_material>
      </instance_geometry>
    </node>
    <node id="ID25" name="Part 1">
      <instance_geometry url="#ID26">
        <bind_material>
          <technique_common>
            <instance_material symbol="ID10" target="#ID10"/>
          </technique_common>
        </bind_material>
      </instance_geometry>
    </node>
  </library_nodes>

</COLLADA>
